<svg width="506" height="506" viewBox="0 0 506 506" fill="none" xmlns="http://www.w3.org/2000/svg">
<path d="M277.322 277.321C244.405 310.238 241.906 362.871 233.452 408.65C229.29 431.187 218.493 452.741 201.062 470.172C155.263 515.971 81.0096 515.971 35.2113 470.172C-10.5871 424.374 -10.5871 350.12 35.2113 304.322C52.6426 286.89 74.1962 276.094 96.734 271.931C142.512 263.477 195.145 260.979 228.063 228.061C260.98 195.144 263.479 142.511 271.933 96.7327C276.095 74.1948 286.892 52.6413 304.323 35.2099C350.122 -10.5884 424.375 -10.5884 470.174 35.2099C515.972 81.0083 515.972 155.262 470.174 201.06C452.742 218.492 431.189 229.289 408.651 233.451C362.873 241.905 310.24 244.403 277.322 277.321Z" fill="#080808"/>
<rect x="1.44678" y="5.85376" width="229.857" height="229.857" rx="114.929" fill="#080808"/>
</svg>
